<?xml version="1.0" standalone="no"?><!DOCTYPE svg PUBLIC "-//W3C//DTD SVG 1.1//EN" "http://www.w3.org/Graphics/SVG/1.1/DTD/svg11.dtd"><svg t="1481769227762" class="icon" style="" viewBox="0 0 1024 1024" version="1.1" xmlns="http://www.w3.org/2000/svg" p-id="6077" xmlns:xlink="http://www.w3.org/1999/xlink" width="15" height="15"><defs><style type="text/css"></style></defs><path d="M478.982332 121.215548c25.328622 104.932862 85.936396 175.491166 133.879859 236.09894l6.332155 6.332155 73.272085 89.55477 38.897527-104.932862c6.332155-22.614841 15.378092-45.229682 21.710247-70.558304 99.5053 102.219081 169.159011 252.381625 122.120141 434.204947-16.282686 60.607774-51.561837 117.597173-95.886926 149.257951-47.943463 41.611307-131.166078 89.55477-262.332155 89.55477-169.159011 0-257.809187-79.60424-299.420495-127.547703-12.664311-12.664311-22.614841-25.328622-28.946996-37.992933-63.321555-108.551237-73.272085-220.720848-25.328622-315.70318 15.378092 15.378092 31.660777 31.660777 47.943463 44.325088 9.045936 9.95053 18.996466 16.282686 25.328622 22.614841l137.498233 140.212014-26.233216-194.487632c-31.660777-160.113074 47.943463-281.328622 131.166078-360.932862zM530.54417 0C374.04947 104.932862 246.501767 277.710247 274.54417 491.194346c-34.374558-35.279152-98.600707-75.985866-117.597174-140.212014C51.109541 472.19788 23.067138 647.689046 128 820.466431c9.95053 15.378092 22.614841 34.374558 37.992933 50.657244 45.229682 54.275618 153.780919 152.876325 350.982332 152.876325 150.162544 0 246.04947-56.989399 306.657244-104.932862 60.607774-44.325088 102.219081-121.215548 121.215548-185.441696 64.226148-242.431095-60.607774-453.201413-229.766785-568.084806 0 57.893993-25.328622 128.452297-37.992933 166.44523-73.272085-85.936396-146.54417-172.777385-146.544169-331.985866z" fill="#f07373" p-id="6078"></path></svg>