<?xml version="1.0" standalone="no"?><!DOCTYPE svg PUBLIC "-//W3C//DTD SVG 1.1//EN" "http://www.w3.org/Graphics/SVG/1.1/DTD/svg11.dtd"><svg t="1481716087170" class="icon" style="" viewBox="0 0 1024 1024" version="1.1" xmlns="http://www.w3.org/2000/svg" p-id="2565" xmlns:xlink="http://www.w3.org/1999/xlink" width="10" height="10"><defs><style type="text/css"></style></defs><path d="M770.63706 491.153206c-0.124843-1.278109-0.248663-2.540869-0.499373-3.795443-0.13917-0.639566-0.311085-1.26276-0.668219-2.487657-0.405229-1.518586-0.842181-3.024893-1.433652-4.51278-0.733711-1.809205-1.669012-3.547803-3.024893-5.907547-1.888-3.109828-3.866051-5.682419-6.065136-7.895831-1.183965-1.162476-2.430352-2.153036-3.397377-2.798742L351.5461 59.761082c-14.560624-14.520715-40.346917-14.023388-55.406914 1.044796-7.483438 7.483438-11.754718 17.334807-11.989055 27.726481-0.249687 10.546194 3.647063 20.376073 10.959609 27.680433l378.884236 378.877073L295.10974 873.981265c-7.312546 7.312546-11.209296 17.149589-10.959609 27.671223 0.234337 10.398838 4.490268 20.234857 11.989055 27.735691 7.747451 7.734148 17.928325 12.002358 28.66997 12.002358 10.1645 0 19.675108-3.897773 26.736944-10.975982l403.750577-403.687132c1.26276-0.966001 2.511193-1.957585 3.647063-3.102664 2.167363-2.166339 4.085038-4.662183 6.578836-8.847505 0.904603-1.598404 1.793856-3.213181 2.464121-4.857635 0.669242-1.63729 1.153266-3.312442 1.62194-5.112438l0.497327-1.863441c0.343831-1.63729 0.484024-3.282766 0.655939-5.417383l0.141216-2.385327C770.902096 494.193449 770.824325 493.249961 770.63706 491.153206z" p-id="2566" fill="#999999"></path></svg>