<?xml version="1.0" standalone="no"?><!DOCTYPE svg PUBLIC "-//W3C//DTD SVG 1.1//EN" "http://www.w3.org/Graphics/SVG/1.1/DTD/svg11.dtd"><svg t="1481769515010" class="icon" style="" viewBox="0 0 1024 1024" version="1.1" xmlns="http://www.w3.org/2000/svg" p-id="9920" xmlns:xlink="http://www.w3.org/1999/xlink" width="15" height="15"><defs><style type="text/css"></style></defs><path d="M 512 0 C 229.225 0 0 229.256 0 512 c 0 282.775 229.225 512 512 512 s 512 -229.225 512 -512 C 1024 229.256 794.775 0 512 0 Z M 512 979.478 c -258.195 0 -467.478 -209.314 -467.478 -467.478 S 253.805 44.5217 512 44.5217 s 467.478 209.314 467.478 467.478 S 770.195 979.478 512 979.478 Z" p-id="9921" fill="#37c7b7"></path><path d="M 751.49 627.633 l -217.229 -123.115 L 534.261 189.217 c 0 -6.15266 -4.97778 -11.1304 -11.1304 -11.1304 L 500.87 178.087 c -6.15266 0 -11.1304 4.97778 -11.1304 11.1304 l 0 333.913 c 0 2.31884 0.8657 4.35942 2.0715 6.12174 c 0.958454 1.94783 2.28792 3.67923 4.29759 4.82319 l 233.43 132.329 c 5.34879 3.02995 12.1507 1.14396 15.1807 -4.20483 l 10.9449 -19.3546 C 758.725 637.465 756.839 630.663 751.49 627.633 Z" p-id="9922" fill="#37c7b7"></path></svg>