<?xml version="1.0" standalone="no"?><!DOCTYPE svg PUBLIC "-//W3C//DTD SVG 1.1//EN" "http://www.w3.org/Graphics/SVG/1.1/DTD/svg11.dtd"><svg t="1481769060962" class="icon" style="" viewBox="0 0 1024 1024" version="1.1" xmlns="http://www.w3.org/2000/svg" p-id="2676" xmlns:xlink="http://www.w3.org/1999/xlink" width="15" height="15"><defs><style type="text/css"></style></defs><path d="M115.264 422.656C112.576 241.984 223.488 80.64 388.352 25.216c185.024-62.336 367.616-5.568 482.24 149.504 104.128 141.056 105.728 348.032-0.896 489.408-78.528 103.872-161.28 204.608-244.352 304.64-62.72 75.264-130.688 72.64-192.64-4.352-76.096-94.656-153.152-188.48-226.816-284.992C148.672 604.352 112.64 519.808 115.264 422.656zM168.448 422.592C161.28 492.864 189.184 563.776 233.92 624.384c79.552 108.224 165.568 211.904 250.112 316.48 33.472 41.6 69.568 32.512 99.84-4.608 81.728-101.248 166.976-200 241.984-305.728 99.52-140.608 92.48-307.776-7.872-437.12-94.848-122.048-257.152-170.624-403.392-120.64C266.432 123.456 168.448 259.072 168.448 422.592z" p-id="2677" fill="#51addb"></path><path d="M351.552 416.96c0-101.824 73.792-178.688 172.032-179.2 108.032-0.512 190.144 75.648 190.784 176.96 0.64 102.912-83.136 186.688-184.96 185.344C427.584 598.4 351.744 520.384 351.552 416.96zM532.352 290.688C461.696 289.856 407.296 342.72 405.376 413.888c-1.92 73.344 53.696 131.328 126.592 131.84 69.504 0.384 126.144-54.912 127.424-124.672C660.864 346.624 607.104 291.52 532.352 290.688z" p-id="2678" fill="#51addb"></path></svg>