<?xml version="1.0" standalone="no"?><!DOCTYPE svg PUBLIC "-//W3C//DTD SVG 1.1//EN" "http://www.w3.org/Graphics/SVG/1.1/DTD/svg11.dtd"><svg t="1481769593241" class="icon" style="" viewBox="0 0 1025 1024" version="1.1" xmlns="http://www.w3.org/2000/svg" p-id="10766" xmlns:xlink="http://www.w3.org/1999/xlink" width="15.0146484375" height="15"><defs><style type="text/css"></style></defs><path d="M559.312 84.288c24.624 68.96 95.408 265.824 95.408 265.824s204.016-0.56 304.32 0c66.256 0.368 89.712 40.416 32.944 85.648-56.784 45.232-247.552 195.744-247.552 195.744s72.88 224.576 93.104 286.976c20.256 62.368-24.224 90.448-65.856 61.168-41.648-29.296-260.272-181.28-260.272-181.28s-210.096 147.232-258.688 181.28c-48.592 34.048-84.4-7.792-68.128-57.84 16.272-50.032 94.256-290.288 94.256-290.288S72.176 468.352 29.68 434.832c-42.48-33.536-43.824-86.576 25.44-85.824 69.28 0.736 312.288 0 312.288 0s71.568-199.744 94.256-264.72C486.272 13.84 534.72 15.328 559.312 84.288zM511.408 86.512c0 0-100.464 276.576-104.816 288.08-4.352 11.488-17.024 20.56-30.672 20.56-10.016 0-323.648 0-323.648 0s245.872 194.48 258.912 204.096c15.344 11.312 18.384 24.72 13.648 39.488-4.768 14.768-97.088 301.424-97.088 301.424S481.152 762.512 493.456 754.4c10.416-6.864 24.8-7.072 35.76 0.56C540.208 762.592 795.52 940.16 795.52 940.16s-93.504-288.688-98.24-301.984c-4.336-12.24-1.12-27.616 9.088-35.024 9.456-6.864 264.032-208.544 264.032-208.544s-309.248-0.352-324.224-0.56c-14.944-0.192-23.984-5.008-30.096-19.456C612.16 365.248 511.408 86.512 511.408 86.512z" p-id="10767" fill="#eba53b"></path></svg>